<?xml version="1.0" encoding="utf-8"?>
<!-- Generator: Adobe Illustrator 25.4.1, SVG Export Plug-In . SVG Version: 6.00 Build 0)  -->
<svg version="1.1" id="Camada_1" xmlns="http://www.w3.org/2000/svg" xmlns:xlink="http://www.w3.org/1999/xlink" x="0px" y="0px"
	 viewBox="0 0 41.9 41.5" style="enable-background:new 0 0 41.9 41.5;" xml:space="preserve">
<style type="text/css">
	.st0{fill:url(#SVGID_1_);}
	.st1{fill-rule:evenodd;clip-rule:evenodd;fill:#FFFFFF;}
</style>
<linearGradient id="SVGID_1_" gradientUnits="userSpaceOnUse" x1="0.99" y1="21.8012" x2="40.99" y2="21.8012" gradientTransform="matrix(1 0 0 -1 0 42.5512)">
	<stop  offset="0" style="stop-color:#2AA4F4"/>
	<stop  offset="1" style="stop-color:#007AD9"/>
</linearGradient>
<path class="st0" d="M21,0.7c-11,0-20,9-20,20s9,20,20,20s20-9,20-20S32,0.7,21,0.7z"/>
<path class="st1" d="M12,9.8c1-1,2.6-1,3.7,0c0.1,0.1,0.1,0.1,0.1,0.3l2.6,3.4c0.4,0.6,0.6,1.5,0.4,2.2l-0.7,3.2
	c-0.1,0.3,0,0.6,0.1,0.9l3.7,3.7c0.3,0.1,0.6,0.3,0.9,0.1l3.2-0.7c0.7-0.1,1.6,0,2.2,0.4l3.4,2.6c1.2,0.9,1.3,2.8,0.3,3.8l-1.5,1.5
	c-1,1-2.6,1.6-4.3,1c-3.8-1.3-7.3-3.5-10.3-6.5s-5.1-6.5-6.5-10.3c-0.6-1.5,0-3.1,1-4.3L12,9.8z"/>
</svg>
