<svg id="Camada_1" data-name="Camada 1" xmlns="http://www.w3.org/2000/svg" xmlns:xlink="http://www.w3.org/1999/xlink" viewBox="0 0 40 40"><defs><style>.cls-1{fill:url(#Gradiente_sem_nome_2);}.cls-2{fill:#fff;}</style><linearGradient id="Gradiente_sem_nome_2" x1="7.58" y1="36.15" x2="38.21" y2="5.53" gradientTransform="matrix(1, 0, 0, -1, 0, 43.73)" gradientUnits="userSpaceOnUse"><stop offset="0" stop-color="#2aa4f4"/><stop offset="1" stop-color="#007ad9"/></linearGradient></defs><path class="cls-1" d="M21.59,1.59a20,20,0,1,0,20,20A20,20,0,0,0,21.59,1.59Z" transform="translate(-1.59 -1.59)"/><path class="cls-2" d="M23.89,22.79h5.18l.81-5.26h-6V14.65c0-2.18.72-4.12,2.76-4.12h3.28V6a27.29,27.29,0,0,0-4.1-.25C21,5.7,18.2,8.24,18.2,14v3.5H13.25v5.26H18.2V37.24a19.67,19.67,0,0,0,3,.25,19.94,19.94,0,0,0,2.7-.21Z" transform="translate(-1.59 -1.59)"/></svg>