<?xml version="1.0" encoding="utf-8"?>
<!-- Generator: Adobe Illustrator 25.4.1, SVG Export Plug-In . SVG Version: 6.00 Build 0)  -->
<svg version="1.1" id="Camada_1" xmlns="http://www.w3.org/2000/svg" xmlns:xlink="http://www.w3.org/1999/xlink" x="0px" y="0px"
	 viewBox="0 0 41.9 41.5" style="enable-background:new 0 0 41.9 41.5;" xml:space="preserve">
<style type="text/css">
	.st0{fill:url(#SVGID_1_);}
	.st1{fill:#FFFFFF;}
</style>
<linearGradient id="SVGID_1_" gradientUnits="userSpaceOnUse" x1="6.933" y1="1029.5775" x2="37.555" y2="998.9555" gradientTransform="matrix(1 0 0 -1 0 1036.3043)">
	<stop  offset="0" style="stop-color:#2AA4F4"/>
	<stop  offset="1" style="stop-color:#007AD9"/>
</linearGradient>
<path class="st0" d="M20.9,0.7c-11,0-20,9-20,20s9,20,20,20s20-9,20-20S32,0.7,20.9,0.7z"/>
<path class="st1" d="M23.2,21.9h5.2l0.8-5.3h-6v-2.9c0-2.2,0.7-4.1,2.8-4.1h3.3V5.1c-0.6-0.1-1.8-0.2-4.1-0.2
	c-4.8,0-7.6,2.5-7.6,8.3v3.5h-4.9v5.3h4.9v14.5c1,0.1,2,0.2,3,0.2c0.9,0,1.8-0.1,2.7-0.2V21.9z"/>
</svg>
