<svg id="Camada_1" data-name="Camada 1" xmlns="http://www.w3.org/2000/svg" xmlns:xlink="http://www.w3.org/1999/xlink" viewBox="0 0 40 40"><defs><style>.cls-1{fill:url(#Gradiente_sem_nome_2);}.cls-2{fill:#fff;}</style><linearGradient id="Gradiente_sem_nome_2" x1="1.59" y1="21.59" x2="41.59" y2="21.59" gradientUnits="userSpaceOnUse"><stop offset="0" stop-color="#2aa4f4"/><stop offset="1" stop-color="#007ad9"/></linearGradient></defs><path class="cls-1" d="M21.59,1.59a20,20,0,1,0,20,20A20,20,0,0,0,21.59,1.59Z" transform="translate(-1.59 -1.59)"/><path class="cls-2" d="M11.09,17.09h4v15h-4Zm2-2h0a1.91,1.91,0,0,1-2-2,1.93,1.93,0,0,1,2-2,1.92,1.92,0,0,1,2,2A1.92,1.92,0,0,1,13.08,15.09Zm19,7.5a5.49,5.49,0,0,0-10-3.15V17.09h-4v15h4v-8a3,3,0,0,1,6,0v8h4Z" transform="translate(-1.59 -1.59)"/></svg>