<?xml version="1.0" encoding="utf-8"?>
<!-- Generator: Adobe Illustrator 25.4.1, SVG Export Plug-In . SVG Version: 6.00 Build 0)  -->
<svg version="1.1" id="Camada_1" xmlns="http://www.w3.org/2000/svg" xmlns:xlink="http://www.w3.org/1999/xlink" x="0px" y="0px"
	 viewBox="0 0 41.9 41.5" style="enable-background:new 0 0 41.9 41.5;" xml:space="preserve">
<style type="text/css">
	.st0{fill:url(#SVGID_1_);}
	.st1{fill:#FFFFFF;}
</style>
<linearGradient id="SVGID_1_" gradientUnits="userSpaceOnUse" x1="0.94" y1="20.7339" x2="40.94" y2="20.7339">
	<stop  offset="0" style="stop-color:#2AA4F4"/>
	<stop  offset="1" style="stop-color:#007AD9"/>
</linearGradient>
<path class="st0" d="M20.9,0.7c-11,0-20,9-20,20s9,20,20,20s20-9,20-20S32,0.7,20.9,0.7z"/>
<path class="st1" d="M10.4,16.2h4v15h-4V16.2z M12.4,14.2L12.4,14.2c-1.2,0-2-0.9-2-2c0-1.1,0.8-2,2-2c1.2,0,2,0.9,2,2
	C14.4,13.3,13.7,14.2,12.4,14.2z M31.4,21.7c0-3-2.5-5.5-5.5-5.5c-1.9,0-3.5,0.9-4.5,2.3v-2.3h-4v15h4v-8c0-1.7,1.3-3,3-3s3,1.3,3,3
	v8h4C31.4,31.2,31.4,22.2,31.4,21.7z"/>
</svg>
