<?xml version="1.0" encoding="utf-8"?>
<!-- Generator: Adobe Illustrator 25.4.1, SVG Export Plug-In . SVG Version: 6.00 Build 0)  -->
<svg version="1.1" id="Camada_1" xmlns="http://www.w3.org/2000/svg" xmlns:xlink="http://www.w3.org/1999/xlink" x="0px" y="0px"
	 viewBox="0 0 41.9 41.5" style="enable-background:new 0 0 41.9 41.5;" xml:space="preserve">
<style type="text/css">
	.st0{fill:url(#SVGID_1_);}
	.st1{fill:#FFFFFF;}
</style>
<linearGradient id="SVGID_1_" gradientUnits="userSpaceOnUse" x1="6.933" y1="1029.5775" x2="37.555" y2="998.9555" gradientTransform="matrix(1 0 0 -1 0 1036.3043)">
	<stop  offset="0" style="stop-color:#2AA4F4"/>
	<stop  offset="1" style="stop-color:#007AD9"/>
</linearGradient>
<path class="st0" d="M20.9,0.7c-11,0-20,9-20,20s9,20,20,20s20-9,20-20S32,0.7,20.9,0.7z"/>
<path class="st1" d="M17.3,15.9c-4,2.3,2.1,13.8,6.5,11.2l4.1,7c-1.8,1.1-3.4,1.7-5.6,0.5C16.3,31.2,9.8,19.9,10,13.1
	c0.1-2.3,1.5-3.3,3.3-4.3C14,10.2,16.5,14.5,17.3,15.9L17.3,15.9z M19,15.7c-0.4,0.2-1,0.1-1.2-0.3l-3.8-6.6c-0.2-0.4-0.1-1,0.3-1.2
	l2-1.2c0.4-0.2,1-0.1,1.2,0.3l3.8,6.6c0.2,0.4,0.1,1-0.3,1.2L19,15.7z M29.4,33.8c-0.4,0.2-1,0.1-1.2-0.3l-3.8-6.6
	c-0.2-0.4-0.1-1,0.3-1.2l2-1.2c0.4-0.2,1-0.1,1.2,0.3l3.8,6.6c0.2,0.4,0.1,1-0.3,1.2L29.4,33.8z"/>
</svg>
