<svg id="Camada_1" data-name="Camada 1" xmlns="http://www.w3.org/2000/svg" xmlns:xlink="http://www.w3.org/1999/xlink" viewBox="0 0 40 40"><defs><style>.cls-1{fill:url(#Gradiente_sem_nome_2);}.cls-2{fill:#fff;}</style><linearGradient id="Gradiente_sem_nome_2" x1="7.58" y1="36.15" x2="38.21" y2="5.53" gradientTransform="matrix(1, 0, 0, -1, 0, 43.73)" gradientUnits="userSpaceOnUse"><stop offset="0" stop-color="#2aa4f4"/><stop offset="1" stop-color="#007ad9"/></linearGradient></defs><path class="cls-1" d="M21.59,1.59a20,20,0,1,0,20,20A20,20,0,0,0,21.59,1.59Z" transform="translate(-1.59 -1.59)"/><path class="cls-2" d="M18,16.71c-4,2.31,2.1,13.76,6.48,11.23l4.06,7c-1.85,1.07-3.41,1.74-5.55.52C17,32.09,10.45,20.76,10.64,14c.06-2.35,1.45-3.27,3.25-4.32.78,1.35,3.28,5.69,4.06,7Zm1.67-.19a.91.91,0,0,1-1.24-.33L14.56,9.56a.91.91,0,0,1,.33-1.24l2-1.16a.91.91,0,0,1,1.24.33L22,14.12a.9.9,0,0,1-.33,1.24ZM30.08,34.63a.9.9,0,0,1-1.24-.33L25,27.67a.9.9,0,0,1,.33-1.24l2-1.16a.91.91,0,0,1,1.24.33l3.83,6.63a.91.91,0,0,1-.33,1.24Z" transform="translate(-1.59 -1.59)"/></svg>